<?xml version="1.0" standalone="no"?><!DOCTYPE svg PUBLIC "-//W3C//DTD SVG 1.1//EN" "http://www.w3.org/Graphics/SVG/1.1/DTD/svg11.dtd"><svg t="1548723302495" class="icon" style="" viewBox="0 0 1024 1024" version="1.1" xmlns="http://www.w3.org/2000/svg" p-id="2417" xmlns:xlink="http://www.w3.org/1999/xlink" width="200" height="200"><defs><style type="text/css"></style></defs><path d="M508.416 104.96c-225.28 0-408.064 182.784-408.064 408.064s182.784 408.064 408.064 408.064 408.064-182.784 408.064-408.064c0-108.032-43.008-211.968-119.808-288.768-76.288-76.288-180.224-119.296-288.256-119.296z m120.32 460.8c16.384 0 30.208 13.312 30.208 30.208 0 16.384-13.312 30.208-30.208 30.208h-90.624V716.8c0 16.384-13.312 30.208-30.208 30.208-16.384 0-30.208-13.312-30.208-30.208v-91.136H387.584c-16.384 0-30.208-13.312-30.208-30.208 0-16.384 13.312-30.208 30.208-30.208h90.624V495.104H387.584c-16.384 0-30.208-13.312-30.208-30.208 0-16.384 13.312-30.208 30.208-30.208h77.312L387.584 356.864c-9.216-11.776-8.192-28.672 2.56-39.424 10.752-10.752 27.648-11.776 39.424-2.56l78.848 78.848 77.312-77.312c11.264-11.264 29.696-11.264 41.472 0 11.264 11.264 11.264 29.696 0 41.472L548.864 435.2h79.36c16.384 0 30.208 13.312 30.208 30.208 0 16.384-13.312 30.208-30.208 30.208h-90.112v70.144h90.624z m0 0" fill="#1296db" p-id="2418"></path></svg>