<?xml version="1.0" standalone="no"?><!DOCTYPE svg PUBLIC "-//W3C//DTD SVG 1.1//EN" "http://www.w3.org/Graphics/SVG/1.1/DTD/svg11.dtd"><svg t="1548725016210" class="icon" style="" viewBox="0 0 1025 1024" version="1.1" xmlns="http://www.w3.org/2000/svg" p-id="4079" xmlns:xlink="http://www.w3.org/1999/xlink" width="200.1953125" height="200"><defs><style type="text/css"></style></defs><path d="M393.11872 308.416l44.48-23.232 9.472 211.328 65.344-34.176L536.67072 503.68l-88.96 46.592 36.416 62.016 88.96-46.528 24.256 41.28-88.96 46.656 36.288 62.016-44.416 23.36-36.416-62.144-88.96 46.656-24.256-41.344 88.96-46.656L403.16672 573.504l-88.96 46.528L289.95072 578.624 367.45472 538.112 170.65472 424.768l66.752-34.88L375.39072 485.76C383.26272 491.456 392.35072 498.56 403.35872 507.136l1.024-0.64C402.39872 496.128 401.43872 484.48 400.92672 471.232L393.11872 308.416zM711.13472 313.472c0-46.976 38.208-85.12 85.248-85.12 47.104 0 85.376 38.144 85.376 85.12s-38.272 85.12-85.376 85.12C749.34272 398.592 711.13472 360.512 711.13472 313.472zM14.43072 385.856C0.60672 393.984-4.06528 411.84 3.93472 425.792l303.424 525.568c8 13.888 25.728 18.496 39.552 10.368l540.48-318.528c13.824-8.128 28.224-27.392 32.32-43.008l103.424-399.04c4.032-15.616-5.248-31.552-20.608-35.712L607.83872 60.032C592.41472 55.936 568.73472 59.136 554.91072 67.264L14.43072 385.856z" p-id="4080" fill="#1296db"></path></svg>