<?xml version="1.0" standalone="no"?><!DOCTYPE svg PUBLIC "-//W3C//DTD SVG 1.1//EN" "http://www.w3.org/Graphics/SVG/1.1/DTD/svg11.dtd"><svg t="1547189513917" class="icon" style="" viewBox="0 0 1024 1024" version="1.1" xmlns="http://www.w3.org/2000/svg" p-id="8100" xmlns:xlink="http://www.w3.org/1999/xlink" width="200" height="200"><defs><style type="text/css"></style></defs><path d="M791.872 512.064c0 25.68-20.848 46.528-46.56 46.528l-350.08 0.32 106.608 107.088c18.16 18.192 18.16 47.664 0 65.808-18.192 18.16-47.664 18.176-65.824 0L260.512 555.536c0 0-28.96-25.84-28.96-43.024 0-19.808 25.376-41.792 25.376-41.792 0.032-0.016 0.032-0.016 0 0-0.032 0.064 0 0 0 0L436 290.848c18.176-18.192 47.648-18.192 65.824 0 18.16 18.16 18.16 47.632 0 65.792l-108.72 109.216 352.224-0.336C771.024 465.536 791.872 486.368 791.872 512.064zM960.944 758.16c-11.008 19.008-24.944 32.528-44.368 33.312-25.68 1.024-46.56-20.832-46.56-46.528l0.432-4.32c2.72-15.68 14.816-34.944 21.472-50.608l0 0c25.632-54.304 40.368-114.688 40.368-178.688 0-231.696-187.84-419.568-419.6-419.568-231.744 0-419.616 187.824-419.616 419.568 0 231.696 187.872 419.552 419.616 419.552 92.32 0 177.328-30.208 246.64-80.72 11.68-7.456 21.68-15.184 34.032-15.008 25.712 0.4 46.56 20.832 46.56 46.528l-0.432 4.336c-2.464 20.208-20.464 34.96-33.248 44.368C722.944 989.056 621.664 1023.936 512 1023.936 229.232 1023.936 0 794.736 0 512S229.248 0.064 512 0.064c282.784 0 512 229.2 512 511.936C1024 601.232 1001.088 685.088 960.944 758.16z" p-id="8101" fill="#8a8a8a"></path></svg>