<?xml version="1.0" standalone="no"?><!DOCTYPE svg PUBLIC "-//W3C//DTD SVG 1.1//EN" "http://www.w3.org/Graphics/SVG/1.1/DTD/svg11.dtd"><svg t="1548465330470" class="icon" style="" viewBox="0 0 1024 1024" version="1.1" xmlns="http://www.w3.org/2000/svg" p-id="6014" xmlns:xlink="http://www.w3.org/1999/xlink" width="200" height="200"><defs><style type="text/css"></style></defs><path d="M513.021 2.01C231.26 2.01 2.043 231.24 2.043 512.987 2.043 794.769 231.259 1024 513.02 1024S1024 794.769 1024 512.987C1024 231.24 794.783 2.01 513.021 2.01z m0 968.107c-252.058 0-457.107-205.056-457.107-457.13 0-252.041 205.047-457.1 457.107-457.1 252.058 0 457.106 205.06 457.106 457.1 0 252.074-205.048 457.13-457.106 457.13z m70.315-590.408H477.544v-85.882L245.422 409.81l232.122 115.99v-85.686h114.552c90.678 0 136.005 37.955 136.005 113.866 0 78.536-46.835 117.795-140.529 117.795H320.404v60.404h269.887c127.738 0 191.602-57.486 191.602-172.459 0-120.004-66.178-180.012-198.557-180.012z" fill="#515151" p-id="6015"></path></svg>