<?xml version="1.0" standalone="no"?><!DOCTYPE svg PUBLIC "-//W3C//DTD SVG 1.1//EN" "http://www.w3.org/Graphics/SVG/1.1/DTD/svg11.dtd"><svg t="1548729952506" class="icon" style="" viewBox="0 0 1024 1024" version="1.1" xmlns="http://www.w3.org/2000/svg" p-id="5033" xmlns:xlink="http://www.w3.org/1999/xlink" width="200" height="200"><defs><style type="text/css"></style></defs><path d="M179.439554 443.168c84.064 0 152.384-24.661333 154.016-55.392-1.632-30.741333-69.952-55.402667-154.016-55.402667S27.044888 357.034667 25.412888 387.776c1.632 30.730667 69.952 55.392 154.026666 55.392z m123.925334 24.213333c-33.770667 12.384-77.770667 19.2-123.925334 19.2s-90.154667-6.848-123.936-19.2A172.554667 172.554667 0 0 1 25.306221 453.162667v20.416c0 31.178667 68.970667 56.48 154.016 56.48s154.026667-25.301333 154.026667-56.48v-20.266667a170.496 170.496 0 0 1-29.984 14.112zM179.439554 573.504c-46.165333 0-90.154667-6.837333-123.936-19.2A173.333333 173.333333 0 0 1 25.306221 540.042667v20.426666c0 31.168 68.970667 56.469333 154.016 56.469334s154.026667-25.301333 154.026667-56.469334v-20.266666a181.450667 181.450667 0 0 1-30.197334 14.229333c-33.557333 12.277333-77.557333 19.114667-123.733333 19.114667z m0 86.901333c-46.165333 0-90.154667-6.848-123.936-19.2A174.112 174.112 0 0 1 25.306221 626.986667v20.416c0 31.178667 68.970667 56.533333 154.016 56.533333a402.602667 402.602667 0 0 0 53.845333-3.669333 68.266667 68.266667 0 0 1 14.592-17.290667c10.208-8.906667 24.213333-16.618667 41.482667-22.922667a267.477333 267.477333 0 0 1 44.213333-11.733333v-21.333333a182.304 182.304 0 0 1-30.197333 14.218666c-33.664 12.384-77.664 19.2-123.818667 19.2zM55.610221 814.965333A173.333333 173.333333 0 0 1 25.412888 800.736v14.442667c0 31.178667 68.970667 56.533333 154.026666 56.533333a402.261333 402.261333 0 0 0 46.933334-2.72v-37.333333a439.648 439.648 0 0 1-46.933334 2.389333c-46.165333 0.213333-90.154667-6.624-123.829333-19.008z m0-86.890666A173.333333 173.333333 0 0 1 25.412888 713.845333v20.416c0 31.178667 68.970667 56.48 154.026666 56.48a402.336 402.336 0 0 0 46.933334-2.709333v-43.189333a439.648 439.648 0 0 1-46.933334 2.389333c-46.165333 0.106667-90.154667-6.741333-123.829333-19.114667z m0 0" fill="#4C6070" p-id="5034"></path><path d="M182.799554 392.437333l-100.469333-7.466666a8.117333 8.117333 0 1 1 1.194667-16.181334l87.765333 6.506667 9.664-29.098667a8.138667 8.138667 0 0 1 15.424 5.205334z m-24.117333 30.741334a8.224 8.224 0 0 1-7.925333-6.08 8.138667 8.138667 0 0 1 5.866666-9.877334L263.172888 379.413333a8.128 8.128 0 1 1 4.021333 15.744l-106.56 27.808a5.813333 5.813333 0 0 1-1.962667 0.213334z m0 0" fill="#FFFFFF" p-id="5035"></path><path d="M127.407554 407.424a8.096 8.096 0 0 1-2.069333-16l106.56-27.808a8.130133 8.130133 0 0 1 4.021333 15.754667l-106.56 27.808a12.053333 12.053333 0 0 1-1.952 0.202666z m0 0" fill="#FFFFFF" p-id="5036"></path><path d="M243.514221 425.248a9.152 9.152 0 0 1-3.690667-0.874667l-70.816-35.733333a8.164267 8.164267 0 1 1 7.392-14.56l70.816 35.744a8.16 8.16 0 0 1-3.701333 15.424z m0 0" fill="#FFFFFF" p-id="5037"></path><path d="M592.186221 573.504c84.074667 0 152.394667-24.650667 154.016-55.392-1.621333-30.741333-69.941333-55.392-154.016-55.392s-152.394667 24.650667-154.026667 55.392c1.632 30.741333 69.952 55.392 154.026667 55.392z m123.936 24.224c-33.781333 12.384-77.770667 19.2-123.936 19.2s-90.154667-6.837333-123.936-19.2a173.333333 173.333333 0 0 1-30.197333-14.229333v20.426666c0 31.168 68.981333 56.533333 154.026666 56.533334s154.016-25.312 154.016-56.533334v-20.266666a170.773333 170.773333 0 0 1-29.973333 14.122666z m-123.936 106.122667c-2.826667 0-5.76 0-8.586667-0.106667a49.12 49.12 0 0 1 5.109334 21.824v21.728h3.477333c85.045333 0 154.016-25.301333 154.016-56.48v-20.266667a182.304 182.304 0 0 1-30.197333 14.229334c-33.664 12.266667-77.653333 19.114667-123.818667 19.114666z m0 86.890666h-3.477333v43.445334h3.477333c85.045333 0 154.048-25.344 154.048-56.469334v-20.32a181.450667 181.450667 0 0 1-30.197333 14.229334c-33.696 12.277333-77.685333 19.082667-123.850667 19.082666z m0 0" fill="#4C6070" p-id="5038"></path><path d="M595.556888 522.784l-100.48-7.466667a8.117333 8.117333 0 0 1 1.194666-16.181333l87.765334 6.517333 9.664-29.141333a8.138667 8.138667 0 1 1 15.413333 5.216zM571.439554 553.525333a8.106667 8.106667 0 0 1-2.069333-16l106.56-27.808a8.128 8.128 0 1 1 4.021333 15.744l-106.517333 27.84a5.525333 5.525333 0 0 1-1.952 0.224z m0 0" fill="#FFFFFF" p-id="5039"></path><path d="M540.154221 537.770667a8.106667 8.106667 0 0 1-2.058667-16l106.549334-27.808a8.130133 8.130133 0 0 1 4.021333 15.754666l-106.549333 27.808a11.168 11.168 0 0 1-1.962667 0.213334z m0 0" fill="#FFFFFF" p-id="5040"></path><path d="M656.271554 555.584a9.098667 9.098667 0 0 1-3.690666-0.864l-70.826667-35.744a8.16 8.16 0 1 1 7.392-14.549333l70.816 35.733333a8.149333 8.149333 0 0 1-3.690667 15.424z m0 0" fill="#FFFFFF" p-id="5041"></path><path d="M407.535554 779.882667c84.074667 0 152.394667-24.661333 154.016-55.392-1.621333-30.741333-69.941333-55.381333-154.016-55.381334s-152.394667 24.64-154.026666 55.381334c1.632 30.730667 69.952 55.392 154.026666 55.392z m0 130.336c-46.165333 0-90.154667-6.837333-123.936-19.2a174.112 174.112 0 0 1-30.165333-14.24v20.416c0 31.168 68.970667 56.48 154.026667 56.48s154.016-25.312 154.016-56.48v-20.32a180.608 180.608 0 0 1-30.197334 14.229333c-33.578667 12.277333-77.578667 19.072-123.744 19.072z m0-86.890667c-46.165333 0-90.154667-6.837333-123.936-19.2a173.333333 173.333333 0 0 1-30.165333-14.250667v20.416c0 31.178667 68.970667 56.48 154.026667 56.48s154.016-25.301333 154.016-56.48v-20.266666a181.450667 181.450667 0 0 1-30.197334 14.229333c-33.557333 12.277333-77.546667 19.114667-123.733333 19.114667z m0 0" fill="#FFBD5C" p-id="5042"></path><path d="M410.895554 729.152l-100.469333-7.466667a8.117333 8.117333 0 0 1 1.194667-16.181333l87.765333 6.506667 9.664-29.098667a8.1408 8.1408 0 1 1 15.424 5.216z m-24.128 30.741333a8.106667 8.106667 0 0 1-2.069333-16l106.602667-27.765333a8.053333 8.053333 0 0 1 9.888 5.866667 8.149333 8.149333 0 0 1-5.866667 9.877333l-106.56 27.808a5.781333 5.781333 0 0 1-1.952 0.213333z m0 0" fill="#FFFFFF" p-id="5043"></path><path d="M355.503554 744.149333a8.106667 8.106667 0 0 1-2.058666-16l106.549333-27.808a8.130133 8.130133 0 0 1 4.021333 15.754667l-106.549333 27.808a11.168 11.168 0 0 1-1.962667 0.213333z m0 0" fill="#FFFFFF" p-id="5044"></path><path d="M471.620888 761.962667a9.109333 9.109333 0 0 1-3.690667-0.874667l-70.826667-35.733333a8.16 8.16 0 1 1 7.392-14.549334l70.805334 35.733334a8.149333 8.149333 0 0 1-3.690667 15.424z m0 0" fill="#FFFFFF" p-id="5045"></path><path d="M541.348888 0C429.039554 0 337.796888 91.349333 337.796888 203.552s91.349333 203.552 203.552 203.552 203.552-91.232 203.552-203.552S653.551554 0 541.348888 0z m0 370.133333c-91.733333 0-166.506667-74.730667-166.506667-166.517333s74.730667-166.506667 166.506667-166.506667 166.485333 74.762667 166.485333 166.549334-74.666667 166.517333-166.485333 166.517333z m0 0" fill="#4C6070" p-id="5046"></path><path d="M396.015554 203.552A145.333333 145.333333 0 1 0 541.348888 58.218667a145.333333 145.333333 0 0 0-145.333334 145.333333z m0 0" fill="#FFBD5C" p-id="5047"></path><path d="M604.367554 210.069333a16.298667 16.298667 0 1 0 0-32.586666H571.866221l44.970667-53.653334a16.270933 16.270933 0 1 0-24.981334-20.853333l-48.117333 57.333333-50.069333-57.674666a16.328533 16.328533 0 1 0-24.661334 21.408l46.496 53.44h-34.133333a16.298667 16.298667 0 0 0 0 32.586666h45.184v24.906667h-45.162667a16.298667 16.298667 0 0 0 0 32.586667h45.184v35.68a16.298667 16.298667 0 0 0 32.586667 0v-35.733334h45.205333a16.298667 16.298667 0 1 0 0-32.533333h-45.205333v-24.906667z m0 0" fill="#4C6070" p-id="5048"></path></svg>