<?xml version="1.0" standalone="no"?><!DOCTYPE svg PUBLIC "-//W3C//DTD SVG 1.1//EN" "http://www.w3.org/Graphics/SVG/1.1/DTD/svg11.dtd"><svg t="1547020600520" class="icon" style="" viewBox="0 0 1024 1024" version="1.1" xmlns="http://www.w3.org/2000/svg" p-id="9316" xmlns:xlink="http://www.w3.org/1999/xlink" width="200" height="200"><defs><style type="text/css"></style></defs><path d="M612.681791 551.867317c-11.800834-5.91396-38.088614-13.877492-69.378431-15.949636-31.30336-2.067629-71.455089 0-71.455089 0v135.524499s41.925917 0.893866 69.987885-1.173763c28.034881-2.067629 56.977172-9.150838 71.44606-17.132427 14.459859-7.97256 31.885727-20.37382 31.885728-51.370196 0-31.009919-20.671775-43.993546-32.486153-49.898477z m-88.280532-78.845282c23.041874-0.889351 47.546436-6.198372 65.247688-15.945121 17.719309-9.742234 27.754984-25.08693 27.177131-48.12429-0.604939-23.032845-15.945121-42.517313-41.925917-50.498902-25.989825-7.97256-43.397635-8.563957-63.193602-8.857397-19.782424-0.288926-39.862802 1.480747-39.862802 1.480747v121.944963c0.004514 0 29.529172 0.889351 52.557502 0z" fill="#F7931A" p-id="9317"></path><path d="M512 0C229.231428 0 0 229.226914 0 512c0 282.768572 229.231428 512 512 512s511.990971-229.231428 511.990971-512C1023.990971 229.226914 794.768572 0 512 0z m208.469364 707.765635c-38.102158 26.576706-78.845282 31.307875-96.858032 33.659916-8.888999 1.169249-24.116318 2.4017-40.445169 3.358768v102.650102h-63.193603v-100.988775h-48.124289v100.988775H408.659184v-100.988775H284.353152l12.98814-75.897331h37.790659c12.703729 0 18.008235-1.178278 23.321771-6.193858 5.313535-5.024609 6.496328-12.6947 6.496328-18.906616V383.987585c0-16.37851-1.33177-20.811724-8.861912-29.222188-7.530142-8.428522-25.240422-9.534568-35.212894-9.534568h-36.526607V279.621983h124.306032V178.344282h63.184573v101.277701h48.12429V178.344282h63.193602v102.492095c47.108533 2.920864 82.176964 11.895638 112.785095 34.513151 39.573876 29.231217 37.497218 80.014531 36.612381 92.122349-0.880322 12.107818-6.193858 35.438618-16.834472 50.485359-10.618042 15.064799-36.603352 30.125083-36.603352 30.125083s30.702935 6.491813 52.268575 22.734889c21.538554 16.243076 37.501733 44.878383 36.594324 86.808814-0.866779 41.930431-9.426221 83.567422-47.510321 110.139613z" fill="#F7931A" p-id="9318"></path></svg>