<?xml version="1.0" standalone="no"?><!DOCTYPE svg PUBLIC "-//W3C//DTD SVG 1.1//EN" "http://www.w3.org/Graphics/SVG/1.1/DTD/svg11.dtd"><svg t="1548724895447" class="icon" style="" viewBox="0 0 1024 1024" version="1.1" xmlns="http://www.w3.org/2000/svg" p-id="3199" xmlns:xlink="http://www.w3.org/1999/xlink" width="200" height="200"><defs><style type="text/css"></style></defs><path d="M444.16 512.832L331.008 399.808a48 48 0 1 1 67.904-67.904L512 444.928l113.024-113.024a48 48 0 1 1 67.84 67.84L579.968 512.896l113.024 112.96a48 48 0 1 1-67.904 67.904L512 580.672 398.976 693.76a48 48 0 1 1-67.84-67.84l112.96-113.024zM512 960A448 448 0 1 1 512 64a448 448 0 0 1 0 896z m0-95.616a352 352 0 1 0 0-704 352 352 0 0 0 0 704z" p-id="3200" fill="#bfbfbf"></path></svg>