<?xml version="1.0" standalone="no"?><!DOCTYPE svg PUBLIC "-//W3C//DTD SVG 1.1//EN" "http://www.w3.org/Graphics/SVG/1.1/DTD/svg11.dtd"><svg t="1547108363193" class="icon" style="" viewBox="0 0 1024 1024" version="1.1" xmlns="http://www.w3.org/2000/svg" p-id="4458" xmlns:xlink="http://www.w3.org/1999/xlink" width="200" height="200"><defs><style type="text/css"></style></defs><path d="M916.180816 268.136714l-254.024256-233.137817c-13.54796-13.54796-31.047409-19.757442-51.369349-19.757442H254.588754c-17.499449 0-31.047409 13.54796-31.047409 31.047409v96.529218H119.109151c-3.38699 0-6.209482 0.564498-9.031973 1.128996-12.983462 3.951488-22.015436 15.805954-22.015436 29.918413v806.668136c0 17.499449 13.54796 29.353914 31.047409 29.353914H774.491731c3.38699 0 6.209482-0.564498 9.031974-1.128996 12.983462-3.951488 22.015436-15.805954 22.015435-29.918413v-96.529217h104.432194c17.499449 0 29.353914-13.54796 29.353914-29.353914l0.564498-526.676957c0.564498-21.450937-5.644983-43.466373-23.70893-58.14333zM404.180816 450.46968c0-5.644983 5.644983-13.54796 15.805954-13.54796h322.893054c7.902977 0 15.805954 5.644983 15.805953 13.54796l2.257994 33.305403c0 5.644983-5.644983 13.54796-15.805954 13.54796H419.422271c-7.902977 0-15.805954-5.644983-15.805953-13.54796v-33.305403z m0 107.254686c0-5.644983 5.644983-13.54796 15.805954-13.54796h322.893054c7.902977 0 15.805954 5.644983 15.805953 13.54796l2.257994 33.305402c0 5.644983-5.644983 13.54796-15.805954 13.547961H419.422271c-7.902977 0-15.805954-5.644983-15.805953-13.547961v-33.305402z m0 107.254686c0-5.644983 5.644983-13.54796 15.805954-13.54796h322.893054c7.902977 0 15.805954 5.644983 15.805953 13.54796l2.257994 33.305402c0 6.209482-5.644983 13.54796-15.805954 13.547961H419.422271c-7.902977 0-15.805954-5.644983-15.805953-13.547961v-33.305402z m345.472988 296.92613H175.558986c-17.499449 0-31.047409-11.854465-31.047409-29.353914V191.364939h79.594266v661.592062c0 17.499449 13.54796 29.353914 31.047409 29.353914h495.06505v79.594267zM661.027563 274.910695V104.432194l187.97795 168.220507-187.97795 2.257994z" fill="#5D5D5D" p-id="4459"></path></svg>