<?xml version="1.0" standalone="no"?><!DOCTYPE svg PUBLIC "-//W3C//DTD SVG 1.1//EN" "http://www.w3.org/Graphics/SVG/1.1/DTD/svg11.dtd"><svg t="1547120106822" class="icon" style="" viewBox="0 0 1024 1024" version="1.1" xmlns="http://www.w3.org/2000/svg" p-id="2056" xmlns:xlink="http://www.w3.org/1999/xlink" width="200" height="200"><defs><style type="text/css"></style></defs><path d="M537.6 640h128v-51.2h-307.2V640h128v51.2h-128v51.2h128v102.4h51.2v-102.4h128v-51.2h-128V640zM422.624 230.4h178.752c207.168 0 377.088 164.16 384.224 371.2l7.328 212.32a153.6 153.6 0 0 1-153.504 158.88H184.576a153.6 153.6 0 0 1-153.504-158.88L38.4 601.6c7.136-207.04 177.056-371.2 384.224-371.2zM640 409.6l-128 179.2h51.2l128-179.2H640z m-307.2 0l128 179.2H512l-128-179.2h-51.2zM290.784 25.6h442.432a25.6 25.6 0 0 1 18.368 43.392L640 184.32h-256L272.416 68.992A25.6 25.6 0 0 1 290.784 25.6z" fill="#707070" p-id="2057"></path></svg>