<?xml version="1.0" standalone="no"?><!DOCTYPE svg PUBLIC "-//W3C//DTD SVG 1.1//EN" "http://www.w3.org/Graphics/SVG/1.1/DTD/svg11.dtd"><svg t="1547020932835" class="icon" style="" viewBox="0 0 1152 1024" version="1.1" xmlns="http://www.w3.org/2000/svg" p-id="2842" xmlns:xlink="http://www.w3.org/1999/xlink" width="225" height="200"><defs><style type="text/css"></style></defs><path d="M704.768 510.496c-28.752 22.4-73.168 25.184-130.768 33.504C291.632 584.752 88.832 763.744 64.528 1024H0.144c20.832-251.408 203.6-456.976 444.144-512.864-84.752-46.064-142.288-135.888-142.288-239.136 0-150.224 121.776-272 272-272s272 121.776 272 272c0 102.816-57.056 192.24-141.232 238.496zM574 64c-114.88 0-208 93.12-208 208 0 114.864 93.12 208 208 208s208-93.136 208-208c0-114.88-93.12-208-208-208z" p-id="2843"></path><path d="M1088 760H772.016c-15.056-81.904-86.688-144-172.96-144-97.2 0-176 78.8-176 176s78.8 176 176 176c86.272 0 157.888-62.096 172.96-144H870.4c-0.176 1.328-0.4 2.624-0.4 4v64a32 32 0 0 0 64 0v-64c0-1.376-0.24-2.672-0.4-4h48.4v36a32 32 0 0 0 64 0V824H1088a32 32 0 0 0 0-64z m-488.944 144a112 112 0 1 1 0-224 112 112 0 0 1 0 224z" p-id="2844"></path></svg>