<?xml version="1.0" standalone="no"?><!DOCTYPE svg PUBLIC "-//W3C//DTD SVG 1.1//EN" "http://www.w3.org/Graphics/SVG/1.1/DTD/svg11.dtd"><svg t="1547189575855" class="icon" style="" viewBox="0 0 1024 1024" version="1.1" xmlns="http://www.w3.org/2000/svg" p-id="8885" xmlns:xlink="http://www.w3.org/1999/xlink" width="200" height="200"><defs><style type="text/css"></style></defs><path d="M222.979956 504.09189c0 54.41226-44.101427 98.513688-98.514711 98.513688-54.413284 0-98.513688-44.101427-98.513688-98.513688 0-54.41226 44.100404-98.513688 98.513688-98.513688C178.878528 405.578202 222.979956 449.678606 222.979956 504.09189" p-id="8886" fill="#707070"></path><path d="M580.95907 504.09189c0 65.287959-52.934606 118.233821-118.221542 118.233821-65.286935 0-118.223588-52.945863-118.223588-118.233821s52.936653-118.211309 118.223588-118.211309C528.024463 385.880581 580.95907 438.803931 580.95907 504.09189" p-id="8887" fill="#707070"></path><path d="M998.045373 504.09189c0 81.620949-66.173119 147.792021-147.780765 147.792021-81.610716 0-147.760299-66.171072-147.760299-147.792021 0-81.597413 66.149583-147.770532 147.760299-147.770532C931.872255 356.321358 998.045373 422.494477 998.045373 504.09189" p-id="8888" fill="#707070"></path></svg>