<?xml version="1.0" standalone="no"?><!DOCTYPE svg PUBLIC "-//W3C//DTD SVG 1.1//EN" "http://www.w3.org/Graphics/SVG/1.1/DTD/svg11.dtd"><svg t="1547888042130" class="icon" style="" viewBox="0 0 1146 1024" version="1.1" xmlns="http://www.w3.org/2000/svg" p-id="5482" xmlns:xlink="http://www.w3.org/1999/xlink" width="223.828125" height="200"><defs><style type="text/css"></style></defs><path d="M572.14976 427.008l-261.9392-66.9696a19.88608 19.88608 0 0 0-24.30976 13.43488 18.55488 18.55488 0 0 0 2.048 14.47936c2.64192 4.38272 6.9632 7.51616 12.00128 8.74496l261.89824 67.01056a19.90656 19.90656 0 0 0 24.28928-13.4144 18.5344 18.5344 0 0 0-1.98656-14.49984 19.29216 19.29216 0 0 0-12.00128-8.76544z m58.49088 30.72c1.8432-1.88416 3.44064-3.95264 5.71392-5.71392-2.27328 1.67936-3.8912 3.82976-5.71392 5.71392z m2.80576 0.16384c-2.53952 1.86368-3.74784 3.7888-5.69344 5.69344 1.86368-1.8432 3.15392-3.82976 5.69344-5.69344z m7.9872-9.80992c-2.08896 1.49504-3.74784 3.66592-5.7344 5.71392 1.9456-2.048 3.64544-4.21888 5.7344-5.71392z m496.72192 98.38592L1014.5792 340.1728c-0.38912-0.36864-0.75776-0.6144-0.94208-0.96256v-0.04096a19.70176 19.70176 0 0 0-3.2768-3.52256c-0.57344-0.512-1.14688-1.06496-1.78176-1.51552a21.7088 21.7088 0 0 0-4.66944-2.19136c-0.57344-0.2048-1.14688-0.512-1.69984-0.67584l-0.18432-0.02048-0.28672-0.08192-469.56544-105.02144a21.2992 21.2992 0 0 0-10.73152 0.4096L186.49088 331.5712a2.6624 2.6624 0 0 0-0.6144 0.38912H185.7536a18.08384 18.08384 0 0 0-4.4032 2.4576c-0.65536 0.4096-1.39264 0.59392-1.9456 1.10592L7.22944 483.45088a18.35008 18.35008 0 0 0-3.76832 23.90016c3.72736 5.87776 10.24 9.15456 17.03936 9.15456 2.3552 0 4.68992-0.4096 6.90176-1.16736l105.3696-37.43744a19.1488 19.1488 0 0 0 11.0592-9.8304 18.49344 18.49344 0 0 0 0.57344-14.58176 20.15232 20.15232 0 0 0-25.51808-11.1616l-7.43424 2.6624L172.8512 392.192v501.57568c0 8.6016 6.20544 16.13824 15.01184 18.3296l452.52608 110.30528c1.96608 0.63488 4.096 0.90112 6.18496 0.90112h0.57344-0.57344 1.69984c0.16384 0 0.26624 0 0.34816-0.08192a21.9136 21.9136 0 0 0 4.4032-0.8192c0.3072-0.18432 0.49152-0.18432 0.69632-0.36864l338.944-110.30528a19.16928 19.16928 0 0 0 13.47584-17.96096V613.92896l121.22112-40.07936a19.00544 19.00544 0 0 0 12.14464-11.1616 18.39104 18.39104 0 0 0-1.37216-16.26112v0.04096z m-925.61408-183.0912l-9.6256 3.01056-30.04416 25.8048v-0.04096l30.0032-25.78432 9.6256-3.01056 0.04096 0.02048z m427.58144 84.45952c-0.2048 0.06144-0.28672 0.2048-0.47104 0.26624-1.49504 0.57344-2.64192 1.39264-3.93216 2.17088-0.94208 0.57344-1.88416 1.04448-2.74432 1.78176-0.9216 0.88064-1.57696 1.92512-2.33472 2.8672-0.65536 1.024-1.49504 1.88416-2.048 2.99008-0.38912 1.024-0.57344 2.10944-0.75776 3.11296-0.45056 1.39264-0.9216 2.68288-0.9216 4.13696v0.08192c0 0.18432-0.1024 0.32768-0.1024 0.512v514.29376L212.5824 879.06304V363.3152l316.0064-99.0208 397.35296 88.82176-285.81888 94.67904v0.02048z m340.33664 134.43072l1.69984-0.4096a20.48 20.48 0 0 0-2.99008 0.88064c0.26624-0.08192 0.57344-0.16384 0.73728-0.26624l-172.19584 56.9344-79.2576-109.30176a20.54144 20.54144 0 0 0-27.72992-4.75136 18.3296 18.3296 0 0 0-4.97664 26.37824l87.98208 121.18016a20.2752 20.2752 0 0 0 22.85568 7.08608l159.8464-52.89984v-26.68544 279.83872L666.4192 977.89952l-19.08736 6.2464 19.08736-6.2464V479.25248l321.7408-106.57792-8.15104-13.6192a18.16576 18.16576 0 0 1 0.36864-19.41504 18.37056 18.37056 0 0 0-0.28672 19.41504l8.06912 13.6192 15.64672-5.14048-15.64672 5.14048 103.60832 172.7488-111.3088 36.82304v0.02048z m9.66656-0.8192a25.12896 25.12896 0 0 0-5.7344 1.06496c2.00704-0.47104 4.01408-1.06496 5.7344-1.06496z m-1.88416 0.16384a21.01248 21.01248 0 0 0-5.69344 2.33472c1.76128-0.94208 3.52256-1.86368 5.69344-2.33472z m-14.336 8.92928c1.536-1.86368 3.62496-3.74784 5.71392-5.69344-2.08896 1.9456-4.17792 3.74784-5.71392 5.69344z m1.51552-0.86016c2.048-2.17088 4.15744-3.95264 5.69344-5.71392-1.536 1.76128-3.64544 3.54304-5.69344 5.71392z m1.59744-0.88064c1.69984-2.17088 3.93216-3.93216 5.69344-5.69344-1.76128 1.76128-3.9936 3.52256-5.69344 5.69344z m-344.41216-127.77472c-2.56 1.92512-5.69344 3.70688-5.69344 5.71392 0-1.96608 3.13344-3.7888 5.69344-5.71392zM716.43136 185.87648a20.0704 20.0704 0 0 0 24.73984 13.90592l67.13344-19.2512a20.0704 20.0704 0 0 0 13.6192-24.90368 20.0704 20.0704 0 0 0-24.73984-13.9264l-67.13344 19.2512a20.0704 20.0704 0 0 0-13.6192 24.92416zM468.64384 65.18784a20.29568 20.29568 0 0 0 4.05504 7.55712l45.568 53.80096a19.8656 19.8656 0 0 0 28.16 2.31424 20.2752 20.2752 0 0 0 2.12992-28.42624l-45.58848-53.80096a19.8656 19.8656 0 0 0-28.16-2.31424 20.21376 20.21376 0 0 0-6.144 20.8896zM646.06208 107.35616c2.048 7.12704 7.90528 12.88192 15.62624 14.336a19.84512 19.84512 0 0 0 23.20384-16.09728l13.57824-75.65312a20.29568 20.29568 0 0 0-16.0768-23.552 19.84512 19.84512 0 0 0-23.22432 16.09728l-13.57824 75.6736a20.31616 20.31616 0 0 0 0.47104 9.216z" p-id="5483" fill="#8a8a8a"></path></svg>