<?xml version="1.0" standalone="no"?><!DOCTYPE svg PUBLIC "-//W3C//DTD SVG 1.1//EN" "http://www.w3.org/Graphics/SVG/1.1/DTD/svg11.dtd"><svg t="1548225560017" class="icon" style="" viewBox="0 0 1024 1024" version="1.1" xmlns="http://www.w3.org/2000/svg" p-id="3325" xmlns:xlink="http://www.w3.org/1999/xlink" width="200" height="200"><defs><style type="text/css"></style></defs><path d="M1009.942 718.058c18.746 18.746 18.746 49.138 0 67.882l-160 159.968c-30.02 30.02-81.942 8.98-81.942-33.942V832h-117.57a24.008 24.008 0 0 1-17.546-7.624l-141.112-151.192 106.666-114.286L704 672h64v-79.962c0-42.876 51.886-63.996 81.942-33.942l160 159.962zM24 352h168l105.562 113.102 106.666-114.286-141.112-151.192A23.998 23.998 0 0 0 245.57 192H24c-13.254 0-24 10.746-24 24v112c0 13.254 10.746 24 24 24z m744 0v79.968c0 42.92 51.922 63.96 81.942 33.942l160-159.968c18.746-18.746 18.746-49.138 0-67.882l-160-159.962C819.886 48.042 768 69.164 768 112.038V192h-117.57a24.008 24.008 0 0 0-17.546 7.624L192 672H24c-13.254 0-24 10.746-24 24v112c0 13.254 10.746 24 24 24h221.57c6.652 0 13.006-2.762 17.546-7.624L704 352h64z" fill="#707070" p-id="3326"></path></svg>