<?xml version="1.0" standalone="no"?><!DOCTYPE svg PUBLIC "-//W3C//DTD SVG 1.1//EN" "http://www.w3.org/Graphics/SVG/1.1/DTD/svg11.dtd"><svg t="1548465132475" class="icon" style="" viewBox="0 0 1024 1024" version="1.1" xmlns="http://www.w3.org/2000/svg" p-id="3093" xmlns:xlink="http://www.w3.org/1999/xlink" width="200" height="200"><defs><style type="text/css"></style></defs><path d="M248.32 422.912h282.112c20.48 0 30.208-18.944 30.208-36.352 0-22.528-15.872-36.352-30.208-36.352H248.32c-14.336 0-30.208 13.824-30.208 36.352 0.512 13.824 14.336 36.352 30.208 36.352zM246.784 585.728l1.024 0.512h491.52l1.024-0.512c12.8-6.656 27.136-13.824 27.648-28.672 3.072-10.24 1.536-19.456-4.096-27.136-5.12-6.656-13.312-12.288-24.576-15.872l-1.024-0.512H248.32c-15.36 0-30.208 14.848-30.208 30.208 0.512 15.872 9.216 35.328 28.672 41.984zM246.784 749.056l1.024 0.512h491.52l1.024-0.512c12.8-6.656 27.136-13.824 27.648-28.672 3.072-10.24 1.536-19.456-4.096-27.136-5.12-6.656-13.312-12.288-24.576-15.872l-1.024-0.512H248.32c-14.848 0-29.696 14.336-30.208 29.184-3.072 10.24-1.536 19.456 4.096 27.136 5.632 6.656 13.824 12.288 24.576 15.872z" p-id="3094" fill="#707070"></path><path d="M741.376 6.656l-1.536-1.536H198.144c-71.68 0-130.048 58.368-130.048 130.56v752.64c0 72.192 58.368 130.56 130.56 130.56h627.2c72.192 0 130.56-58.368 130.56-130.56v-660.48l-215.04-221.184zM140.8 135.68c0-34.816 22.528-57.856 57.856-57.856h434.176V261.12c0 40.448 27.136 67.584 67.584 67.584h183.296v559.104c-5.632 28.16-28.16 58.368-64 58.368H198.144c-34.816 0-57.856-22.528-57.856-57.856v-752.64zM725.504 256c-15.872 0-26.112-10.24-26.112-26.112V84.992L869.888 256h-144.384z" p-id="3095" fill="#707070"></path></svg>