<?xml version="1.0" standalone="no"?><!DOCTYPE svg PUBLIC "-//W3C//DTD SVG 1.1//EN" "http://www.w3.org/Graphics/SVG/1.1/DTD/svg11.dtd"><svg t="1548465229626" class="icon" style="" viewBox="0 0 1024 1024" version="1.1" xmlns="http://www.w3.org/2000/svg" p-id="4556" xmlns:xlink="http://www.w3.org/1999/xlink" width="200" height="200"><defs><style type="text/css"></style></defs><path d="M512 30.72C246.272 30.72 30.72 246.272 30.72 512S246.272 993.28 512 993.28 993.28 777.728 993.28 512 777.728 30.72 512 30.72z m228.864 203.776c-3.584 24.064-7.68 49.664-12.8 77.312-5.12 27.648-10.752 55.296-16.896 83.456-6.144 28.16-12.288 53.76-18.432 77.312l-84.48 46.08c10.24-3.072 20.48-5.632 30.208-8.704 8.192-2.56 16.896-5.12 25.6-7.68 8.704-2.56 16.384-4.608 22.016-7.168l-8.704 33.28c-2.56 9.216-4.608 16.384-7.168 20.992-4.096 11.264-9.216 22.016-14.848 31.232-5.632 9.728-11.264 17.92-15.872 25.088-5.632 8.192-11.776 16.384-18.432 23.04l-77.312 23.04 63.488 11.264c-8.192 7.168-17.408 14.336-27.136 22.016-8.192 6.144-17.92 12.8-28.672 19.968-10.752 7.168-22.016 13.312-33.792 18.944-11.776 5.632-25.088 8.704-39.424 9.216-14.336 0-28.16-0.512-40.96-3.072-14.848-2.048-30.208-5.632-45.056-10.752 4.608-7.168 9.728-14.848 14.848-24.064 4.608-7.68 10.24-16.384 16.896-26.624 6.656-10.24 13.312-21.504 20.48-34.304 19.968-33.792 39.424-67.072 58.368-99.84s35.84-62.464 51.2-88.576a17761.6 17761.6 0 0 1 49.664-87.04C583.68 381.44 563.2 407.04 541.184 435.2c-18.944 24.064-39.936 52.224-62.976 84.992-23.04 32.768-46.592 69.12-70.656 108.032-5.12 8.192-10.752 17.408-16.896 27.648-6.144 10.24-12.8 21.504-19.968 33.28-7.168 11.776-13.824 23.552-21.504 36.352-7.168 12.288-14.336 24.576-21.504 36.352-16.896 27.136-33.792 55.808-51.712 85.504 0.512-8.704 2.048-19.968 5.12-33.792 2.56-11.776 6.656-26.624 12.8-44.032 5.632-17.408 14.336-38.4 25.088-62.464 7.168-14.848 12.8-26.624 16.384-35.328s6.656-14.848 8.704-19.456c2.048-5.12 3.584-8.192 5.12-10.24-2.048-2.56-2.56-7.68-1.024-14.848 1.024-6.656 3.072-16.384 7.168-29.184s10.752-30.72 20.48-53.76c9.728-23.552 22.528-48.64 37.888-75.776 15.872-27.136 33.28-53.76 53.248-80.384s40.96-52.224 64-77.312 46.592-47.104 70.656-66.56 48.128-35.328 72.192-47.616 47.616-19.456 70.144-20.992c1.536 15.36 0 34.304-3.072 58.88z" p-id="4557" fill="#707070"></path></svg>