<?xml version="1.0" standalone="no"?><!DOCTYPE svg PUBLIC "-//W3C//DTD SVG 1.1//EN" "http://www.w3.org/Graphics/SVG/1.1/DTD/svg11.dtd"><svg t="1547715914049" class="icon" style="" viewBox="0 0 1204 1024" version="1.1" xmlns="http://www.w3.org/2000/svg" p-id="2296" xmlns:xlink="http://www.w3.org/1999/xlink" width="235.15625" height="200"><defs><style type="text/css"></style></defs><path d="M822.704457 813.250853a384.466659 384.466659 0 0 1-225.260731 68.644008 419.812302 419.812302 0 0 1-31.552158-1.625779c-4.214983-0.361284-8.429966-1.083853-12.705163-1.565566a430.048689 430.048689 0 0 1-24.326473-3.73327c-4.937551-0.903211-9.754675-2.167706-14.571798-3.251558-7.827825-1.806421-15.535223-3.673057-23.182407-5.900977-3.673057-1.144067-7.225685-2.408562-10.898741-3.612842a375.916265 375.916265 0 0 1-26.07268-9.453605c-1.926849-0.782783-3.793485-1.685993-5.66012-2.52899a388.862284 388.862284 0 0 1-29.324239-14.029871l-1.324709-0.602141a388.380572 388.380572 0 0 1-111.757262-91.284488c-1.505351-1.806421-3.010702-3.853699-4.516053-5.720334a376.518405 376.518405 0 0 1-84.359873-237.243325h89.23721c2.288134 0 4.516053-1.204281 5.720334-3.371987a6.081618 6.081618 0 0 0-0.30107-6.442902l-149.932965-222.671528a6.563331 6.563331 0 0 0-10.838527 0L1.023639 491.467012a6.202046 6.202046 0 0 0-0.30107 6.503116c1.204281 2.107491 3.4322 3.311772 5.720334 3.311773H95.740327a494.357286 494.357286 0 0 0 89.598495 283.969422c0.722569 1.144067 1.204281 2.348348 1.926849 3.4322 5.900976 8.309538 12.343879 15.896507 18.666353 23.724333 2.288134 3.010702 4.516053 6.021404 6.924615 8.911678a511.819358 511.819358 0 0 0 29.083382 31.672586c1.023639 1.023639 1.866635 2.047277 2.83006 2.950488a499.294837 499.294837 0 0 0 153.967306 103.929437c3.070916 1.324709 6.081618 2.769846 9.272962 4.094555 10.718099 4.395625 21.677055 8.18911 32.756439 11.862166 5.238622 1.806421 10.417029 3.612843 15.655651 5.178408 9.754675 2.83006 19.629778 5.178408 29.504881 7.586969 6.623545 1.505351 13.247089 3.13113 19.991062 4.395625 2.709632 0.60214 5.419264 1.384923 8.128895 1.806422 9.393391 1.685993 18.846995 2.589204 28.240386 3.73327 3.371986 0.361284 6.743973 0.963425 10.115959 1.324709 16.920146 1.625779 33.719864 2.709632 50.579796 2.709632 102.905798 0 203.282606-31.13066 289.4489-90.923204a59.792544 59.792544 0 0 0 14.933082-83.697518 61.117253 61.117253 0 0 0-84.660943-14.75244z m285.595202-311.908738a494.4175 494.4175 0 0 0-89.176996-283.307069c-0.842997-1.384923-1.445137-2.769846-2.288134-4.03434-7.045043-9.875103-14.632012-19.087851-22.158768-28.3006l-2.649417-3.371987a500.318476 500.318476 0 0 0-189.072093-140.539574l-5.96119-2.709632a599.009291 599.009291 0 0 0-35.586499-12.885805c-4.395625-1.445137-8.670822-3.010702-13.066447-4.275197A492.731507 492.731507 0 0 0 716.547101 13.789016C710.525697 12.404093 704.684935 10.958956 698.723745 9.814889c-3.010702-0.60214-5.780548-1.445137-8.731037-1.987064-7.948254-1.384923-16.016935-1.987063-24.025402-3.010702-5.539692-0.662354-11.01917-1.505351-16.558862-2.107491a540.481242 540.481242 0 0 0-40.162766-1.987063c-2.408562 0-4.817123-0.361284-7.225685-0.361285l-1.324709 0.120428a505.797954 505.797954 0 0 0-289.027402 90.501706 59.73233 59.73233 0 0 0-14.933083 83.697518c19.268493 27.216747 57.20334 33.840292 84.660944 14.75244A384.466659 384.466659 0 0 1 604.789839 120.789368c11.500882 0.060214 22.760908 0.60214 33.840292 1.62578l10.236387 1.324709c9.152534 1.083853 18.244855 2.408562 27.156533 4.154768 3.913913 0.722569 7.827825 1.746207 11.681524 2.589204 8.79125 1.987063 17.522286 4.094555 26.132894 6.623545 2.709632 0.842997 5.35905 1.806421 8.008468 2.709632 9.875103 3.13113 19.449136 6.623545 28.90274 10.477243l2.890274 1.204281c56.6012 24.145831 106.277784 61.297895 144.995413 107.662707l0.722569 0.963425a376.458191 376.458191 0 0 1 87.430789 241.157239h-89.23721a6.503117 6.503117 0 0 0-5.720334 3.371986 6.141832 6.141832 0 0 0 0.30107 6.442902l149.993179 222.671528a6.442903 6.442903 0 0 0 5.419263 2.83006c2.22792 0 4.214983-1.083853 5.419264-2.83006l149.932965-222.671528a6.202046 6.202046 0 0 0 0.30107-6.442902 6.503117 6.503117 0 0 0-5.720334-3.371986h-89.176996z" p-id="2297" fill="#707070"></path></svg>