<?xml version="1.0" standalone="no"?><!DOCTYPE svg PUBLIC "-//W3C//DTD SVG 1.1//EN" "http://www.w3.org/Graphics/SVG/1.1/DTD/svg11.dtd"><svg t="1547111095155" class="icon" style="" viewBox="0 0 1024 1024" version="1.1" xmlns="http://www.w3.org/2000/svg" p-id="7376" xmlns:xlink="http://www.w3.org/1999/xlink" width="200" height="200"><defs><style type="text/css"></style></defs><path d="M376.358205 934.434102z m-56.995085 0c0 31.476899 25.517163 56.994062 56.995085 56.994062s56.995085-25.517163 56.995085-56.994062-25.517163-56.994062-56.995085-56.994062-56.995085 25.517163-56.995085 56.994062M853.782735 934.435125z m-56.996108 0c0 31.477922 25.51921 56.996109 56.996108 56.996109s56.996109-25.518187 56.996109-56.996109-25.51921-56.996109-56.996109-56.996109c-31.477922 0.001023-56.996109 25.518187-56.996108 56.996109M899.178645 781.228791h-0.12689l-546.56012 2.010797-17.399276-1.874697c-5.596462-2.384303-30.254048-16.220427-39.346123-77.482699l-70.1415-527.208377a35.616172 35.616172 0 0 0-0.076748-2.552126c-4.046153-56.461943-27.713178-88.477101-46.855144-105.390305-21.494547-18.99768-42.484603-24.009833-46.474474-24.823362a33.926694 33.926694 0 0 0-6.541997-0.679475l-69.683059-0.426719h-0.211824c-18.584264 0-33.707706 15.008832-33.821293 33.618679-0.113587 18.680455 14.937201 33.917484 33.618678 34.032094l64.836681 0.397043c7.329942 2.818185 26.693965 13.340843 34.624588 47.460941a34.076096 34.076096 0 0 0 0.231268 2.539846l73.467245 552.201608c0.020466 0.159636 0.042979 0.318248 0.066515 0.47686 17.23043 116.804263 85.534072 132.918265 93.26515 134.371361 0.868787 0.163729 1.746784 0.291642 2.62478 0.386809l22.442129 2.41705a33.748638 33.748638 0 0 0 3.623527 0.195451h0.12075l548.43891-2.01796c18.680455-0.068562 33.769105-15.268752 33.701567-33.949206-0.069585-18.641569-15.199167-33.703613-33.82334-33.703613z" p-id="7377"></path><path d="M997.600235 263.86462c8.879228-38.676881 4.491291-70.862931-13.102413-95.770204-25.304316-35.820833-66.865897-39.708374-71.520916-40.034808a32.255635 32.255635 0 0 0-2.467192-0.082888l-574.674434 1.834788c-18.680455 0.060375-33.777291 15.252379-33.71794 33.933857 0.059352 18.682501 15.243169 33.80799 33.933857 33.717939l572.780295-1.828648c2.710738 0.464581 14.364149 2.933819 20.408819 11.492752 3.898797 5.51869 5.552459 13.836123 4.988618 24.254403a34.20401 34.20401 0 0 0-0.732687 3.576455l-2.397607 16.155959a144.441717 144.441717 0 0 1-1.099031 4.191462 33.779338 33.779338 0 0 0-1.172709 11.102872L887.92637 541.871331a34.122145 34.122145 0 0 0-1.01512 5.377474c-5.463432 51.610448-28.300556 58.06444-31.877011 58.760289L409.233963 646.079718c-18.605753 1.673106-32.333406 18.111496-30.661323 36.719296 1.579985 17.577331 16.335037 30.79947 33.650401 30.79947 1.014096 0 2.038426-0.045025 3.066848-0.138146l446.258717-40.11258c5.403057-0.477884 25.323758-3.320629 45.789883-19.764136 11.912307-9.570983 25.862018-25.396413 35.69599-50.913576 3.366677-4.400217 5.699816-9.689686 6.571672-15.556301l47.994084-323.249125z" p-id="7378"></path></svg>