<?xml version="1.0" standalone="no"?><!DOCTYPE svg PUBLIC "-//W3C//DTD SVG 1.1//EN" "http://www.w3.org/Graphics/SVG/1.1/DTD/svg11.dtd"><svg t="1547886619854" class="icon" style="" viewBox="0 0 1088 1024" version="1.1" xmlns="http://www.w3.org/2000/svg" p-id="4135" xmlns:xlink="http://www.w3.org/1999/xlink" width="212.5" height="200"><defs><style type="text/css"></style></defs><path d="M643.616 944.48v75.904c206.208-38.816 378.88-209.632 421.632-439.584h-75.232c-36.064 168.928-167.04 315.616-346.4 363.68z m254.144-429.632c0 191.712-155.808 347.552-347.552 347.552S202.656 706.56 202.656 514.848 357.6 167.296 550.208 167.296s347.552 155.84 347.552 347.552zM551.104 224.192c-161.088 0-291.52 130.432-291.52 291.52s130.432 291.52 291.52 291.52 291.52-130.432 291.52-291.52-130.432-291.52-291.52-291.52z m438.912 215.392h75.232C1022.496 209.632 849.824 38.624 643.616 0v75.904c179.36 48.032 310.336 194.752 346.4 363.68zM108.96 584.416H33.728C76.64 814.368 249.344 985.184 455.36 1024v-75.904c-179.2-48.032-310.336-194.752-346.4-363.68zM455.36 79.328V3.424C249.152 42.24 76.48 213.056 33.728 443.008h75.232C145.024 274.24 276.192 127.552 455.36 79.328z" p-id="4136" fill="#707070"></path></svg>