<?xml version="1.0" standalone="no"?><!DOCTYPE svg PUBLIC "-//W3C//DTD SVG 1.1//EN" "http://www.w3.org/Graphics/SVG/1.1/DTD/svg11.dtd"><svg t="1547020717981" class="icon" style="" viewBox="0 0 1228 1024" version="1.1" xmlns="http://www.w3.org/2000/svg" p-id="11937" xmlns:xlink="http://www.w3.org/1999/xlink" width="239.84375" height="200"><defs><style type="text/css"></style></defs><path d="M514.935467 0c130.184533 0 249.173333 10.922667 336.213333 28.535467 14.267733 2.8672 27.784533 6.075733 40.5504 9.557333 37.2736 10.24 132.164267 42.666667 132.164267 92.023467l2.048 150.7328c9.557333 1.6384 18.6368 3.413333 27.511466 5.188266 14.267733 2.8672 27.8528 6.075733 40.618667 9.557334 37.205333 10.24 132.164267 42.666667 132.164267 92.023466L1228.8 578.218667c0 51.063467-66.218667 89.838933-173.124267 111.479466-11.741867 2.389333-24.098133 4.642133-36.864 6.7584l1.774934 128.6144c0 51.063467-66.218667 89.9072-173.2608 111.479467-87.2448 17.6128-206.506667 28.535467-337.032534 28.535467-130.594133 0-249.856-10.922667-337.1008-28.535467C66.218667 915.0464 0 876.202667 0 825.1392V634.4704c0-40.072533 64.443733-68.8128 96.0512-80.554667a533.162667 533.162667 0 0 1 76.731733-21.026133c11.332267-2.2528 23.210667-4.437333 35.498667-6.485333v-88.746667c-10.0352-1.6384-19.797333-3.413333-29.218133-5.393067C72.157867 410.692267 5.9392 371.780267 5.9392 320.853333V130.116267c0-40.1408 64.443733-68.949333 95.982933-80.554667A527.018667 527.018667 0 0 1 178.722133 28.535467C265.762133 10.8544 384.682667 0 514.935467 0zM370.005333 687.377067c-71.611733-15.701333-123.426133-39.5264-147.182933-69.768534-11.127467 1.8432-21.777067 3.754667-31.880533 5.802667-33.450667 6.826667-59.8016 12.288-76.731734 15.906133a46.830933 46.830933 0 0 1-2.116266 9.693867c16.7936 3.6864 44.032 9.284267 78.848 16.384 49.152 9.8304 110.318933 17.544533 179.063466 21.981867z m-247.944533 74.410666v70.178134c15.1552 3.140267 35.703467 7.441067 60.6208 12.424533v-68.130133a581.495467 581.495467 0 0 1-60.6208-14.472534z m741.239467 9.147734v68.266666c34.884267-7.099733 57.5488-11.946667 63.214933-13.5168a46.216533 46.216533 0 0 1-1.2288-10.376533v-62.122667c-18.432 6.5536-39.1168 12.561067-61.986133 17.749334z m-59.869867 80.0768v-68.744534c-23.688533 3.754667-49.152 7.031467-76.049067 9.898667v69.358933c27.306667-3.072 52.770133-6.5536 76.049067-10.513066z m-135.850667 15.906133V797.354667c-33.792 2.4576-69.154133 4.096-105.6768 4.983466v69.495467c36.864-0.8192 72.157867-2.525867 105.608534-4.983467z m-268.151466-66.696533v69.563733c32.768 1.6384 67.1744 2.594133 102.536533 2.730667v-69.632a2229.0432 2229.0432 0 0 1-102.536533-2.6624z m-59.938134 65.672533v-69.495467a1669.597867 1669.597867 0 0 1-96.938666-10.308266v68.949333c29.696 4.369067 62.122667 7.9872 96.938666 10.8544z m662.869334-495.342933c-28.330667 26.760533-80.213333 47.786667-149.026134 61.713066-21.162667 4.3008-44.168533 8.192-68.676266 11.605334 97.962667-2.935467 185.002667-12.0832 250.6752-25.3952 36.522667-7.3728 64.648533-13.243733 81.237333-16.861867a44.373333 44.373333 0 0 1-1.8432-8.669867 7266.304 7266.304 0 0 0-79.394133-16.384c-10.4448-2.116267-21.435733-4.096-32.9728-6.007466zM330.274133 514.935467V585.045333c15.1552 3.140267 35.771733 7.509333 60.6208 12.4928v-68.130133l-9.489066-1.8432a607.8464 607.8464 0 0 1-51.131734-12.629333z m741.376 9.079466v68.266667c34.816-7.099733 57.344-11.946667 63.010134-13.448533a48.878933 48.878933 0 0 1-1.092267-10.376534v-62.190933c-18.432 6.5536-39.185067 12.561067-61.986133 17.749333z m-59.938133 80.0768V535.415467c-23.7568 3.754667-49.152 7.031467-75.9808 9.898666v69.290667c27.170133-3.072 52.6336-6.5536 75.9808-10.513067z m-135.918933 15.9744V550.5024c-33.723733 2.525867-69.085867 4.096-105.608534 4.983467v69.495466a2067.524267 2067.524267 0 0 0 105.608534-4.9152zM607.573333 553.301333v69.563734c32.836267 1.6384 67.1744 2.6624 102.6048 2.730666V556.032a2227.950933 2227.950933 0 0 1-102.6048-2.730667z m-59.869866 65.7408V549.546667a1672.8064 1672.8064 0 0 1-96.938667-10.376534v68.949334c29.627733 4.437333 62.122667 7.9872 96.938667 10.922666z m-419.84-361.540266v70.0416c15.223467 3.208533 35.771733 7.509333 60.689066 12.4928v-68.1984c-3.2768-0.546133-6.417067-1.2288-9.557333-1.8432a595.285333 595.285333 0 0 1-51.131733-12.4928z m741.376 9.0112v68.266666c34.816-7.099733 57.412267-11.946667 63.0784-13.448533a46.967467 46.967467 0 0 1-1.160534-10.376533v-62.2592c-18.432 6.621867-39.1168 12.629333-61.986133 17.8176z m-59.938134 80.008533V277.9136c-23.7568 3.754667-49.152 7.031467-75.9808 9.898667V357.034667c27.170133-3.003733 52.701867-6.5536 75.9808-10.581334z m-135.918933 15.9744V293.000533c-33.723733 2.4576-69.085867 4.096-105.608533 4.983467v69.495467c36.864-0.750933 72.157867-2.4576 105.608533-4.983467z m-268.0832-66.628267v69.563734c32.768 1.570133 67.106133 2.525867 102.536533 2.6624v-69.632a2229.248 2229.248 0 0 1-102.536533-2.594134z m-59.938133 65.604267V292.0448c-34.338133-2.730667-66.7648-6.144-96.938667-10.376533v68.949333c29.627733 4.369067 62.122667 8.055467 96.938667 10.922667z m-225.28-226.577067a49.288533 49.288533 0 0 1-2.116267 9.762134c16.7936 3.618133 44.032 9.216 78.779733 16.315733 80.418133 16.247467 192.853333 26.350933 318.122667 26.350933s237.636267-10.103467 318.122667-26.350933a5910.528 5910.528 0 0 0 81.237333-16.861867 48.810667 48.810667 0 0 1-1.911467-8.669866c-16.7936-3.618133-44.168533-9.284267-79.394133-16.384-80.418133-16.315733-192.785067-26.350933-318.122667-26.350934-125.201067 0-237.568 10.0352-318.0544 26.282667-33.450667 6.826667-59.733333 12.288-76.731733 15.906133z" fill="#8a8a8a" p-id="11938"></path></svg>