<svg width="1024" height="1024" xmlns="http://www.w3.org/2000/svg" class="icon">
 <defs>
  <style type="text/css"/>
 </defs>
 <path d="m399.1,268.7s-301.3,168.7 -182.8,443.4c87.6,203 439.1,171.1 439.1,171.1c11.2,-1.1 342.2,-17.8 285.5,-328.3c-37.8,-206.9 -215.1,-285.3 -234.2,-288.9c-19.1,-3.5 -307.6,2.7 -307.6,2.7z" fill="#c8c8c8" id="svg_1"/>
 <path d="m600.6,895.3c-105.5,0 -325,-19.9 -393.7,-179.2c-120.6,-279.8 184.1,-454.5 187.2,-456.2c1.4,-0.8 3.1,-1.3 4.7,-1.3c29.6,-0.6 290.2,-6.1 309.6,-2.5c24.3,4.5 204.1,87.9 242.3,297c16.5,90.4 2.4,165.4 -42,223c-74.2,96.3 -210.9,113.9 -251.1,117c-3.6,0.3 -25.1,2.2 -57,2.2zm-198.7,-616.5c-12.5,7.4 -78.1,48.2 -131.1,115.4c-77.5,98.3 -92.7,203.9 -45.3,313.9c83.7,194.1 425.5,165.3 428.9,165c39.9,-3.1 169.3,-19.7 238.4,-109.4c40.7,-52.8 53.5,-122.5 38.1,-207c-36.2,-198.1 -203.5,-276.6 -226.1,-280.7c-13.3,-2.5 -187.4,0.3 -302.9,2.8z" fill="#666666" id="svg_2"/>
 <path d="m355.8,296.4s5.1,51.9 90.5,90.4c85.4,38.5 223.3,32.4 283.2,-40.2c59.8,-72.6 35.2,-81.7 35.2,-81.7l-408.9,31.5z" fill="#f6f6f6" id="svg_3"/>
 <path d="m562.9,420.1c-43.1,0 -86,-8.4 -120.8,-24.1c-89.7,-40.4 -96.2,-96.3 -96.4,-98.6c-0.3,-2.7 0.6,-5.4 2.3,-7.5c1.7,-2.1 4.3,-3.4 7,-3.6l408.8,-31.5c1.4,-0.1 2.9,0.1 4.3,0.6c3.9,1.4 8.8,5.6 10.7,12.9c4.7,17.4 -8.9,45.1 -41.6,84.8c-38.1,46.2 -106.4,67 -174.3,67zm-194.2,-114.5c6.2,15.7 25,46.5 81.7,72.1c82.9,37.3 214.6,31.1 271.2,-37.4c34.2,-41.5 37.9,-59.1 37.9,-64.8l-390.8,30.1zm-12.9,-9.2l0.3,0l-0.3,0z" fill="#666666" id="svg_4"/>
 <path d="m238.1,632.5c-30,-191 116.6,-331.9 122.9,-337.8l25.9,27.4c-1.4,1.3 -138.4,133.5 -111.5,304.6l-37.3,5.8z" fill="#f6f6f6" id="svg_5"/>2019-01-22 11:09:12.226  INFO 15856 --- [ansfer.worker-1] n.w.w.c.stream.worker.EthTransferWorker  : 收到交易请求：8	 to:C1F741b993F8715468b5e7c3B3ff62541aF7A578
2019-01-22 11:09:13.591  INFO 15856 --- [nio-8021-exec-8] n.w.wewallet.controller.SysParamSupport  : token->	bb321528-93bf-480d-aa3b-70e0e874d776
2019-01-22 11:09:13.591  INFO 15856 --- [nio-8021-exec-8] n.w.wewallet.controller.SysParamSupport  : session->	net.wzero.wewallet.domain.SessionData@7eae844e
2019-01-22 11:09:16.176  INFO 15856 --- [ansfer.worker-1] n.w.w.core.serv.impl.EthServiceImpl      : nonce->	1
2019-01-22 11:09:16.514  INFO 15856 --- [ansfer.worker-1] n.w.w.core.serv.impl.EthServiceImpl      : txHash->	0x174ae7dcd6d315ebc65276bd66c3f765c2cd65bb5739f75d4cd0518118512db4
2019-01-22 11:09:16.514  INFO 15856 --- [ansfer.worker-1] n.w.w.core.serv.impl.EthServiceImpl      : no error
2019-01-22 11:09:16.792  INFO 15856 --- [ansfer.worker-1] n.w.w.c.stream.worker.EthTransferWorker  : 收到交易请求：8	 to:C1F741b993F8715468b5e7c3B3ff62541aF7A578
2019-01-22 11:09:18.640  INFO 15856 --- [ansfer.worker-1] n.w.w.core.serv.impl.EthServiceImpl      : nonce->	1
2019-01-22 11:09:18.928  INFO 15856 --- [ansfer.worker-1] n.w.w.core.serv.impl.EthServiceImpl      : txHash->	null
2019-01-22 11:09:18.928  INFO 15856 --- [ansfer.worker-1] n.w.w.core.serv.impl.EthServiceImpl      : has error:known transaction: 174ae7dcd6d315ebc65276bd66c3f765c2cd65bb5739f75d4cd0518118512db4
2019-01-22 11:09:18.942  INFO 15856 --- [callback.core-1] n.w.w.c.r.listener.TransferListener      : transaction hash:	null
2019-01-22 11:13:43.554  INFO 15856 --- [trap-executor-0] c.n.d.s.r.aws.ConfigClusterResolver      : Resolving eureka endpoints via configuration
 <path d="m238.1,642.6c-4.9,0 -9.2,-3.6 -10,-8.5c-30.9,-197.1 119.6,-340.7 126,-346.8c4.1,-3.8 10.4,-3.6 14.3,0.4l25.9,27.4c3.8,4 3.6,10.4 -0.4,14.3c-1.3,1.3 -134.4,130.8 -108.5,295.7c0.4,2.6 -0.2,5.4 -1.8,7.5c-1.6,2.2 -4,3.6 -6.6,4l-37.3,5.8c-0.6,0.1 -1.1,0.2 -1.6,0.2zm122.7,-333.5c-29.1,30.2 -134.2,151.7 -114.1,311.8l17.4,-2.7c-18.2,-148.1 81.1,-266.4 108.8,-296.2l-12.1,-12.9z" fill="#666666" id="svg_6"/>
 <path d="m305.9,668.1c-2,26 -24.7,45.5 -50.7,43.5c-26,-2 -45.5,-24.7 -43.5,-50.6c2,-26 24.6,-45.5 50.6,-43.5c26.1,1.9 45.6,24.6 43.6,50.6z" fill="#ffc200" id="svg_7"/>
 <path d="m258.8,721.9c-1.4,0 -2.9,-0.1 -4.4,-0.2c-15.3,-1.2 -29.2,-8.2 -39.1,-19.8c-10,-11.6 -14.8,-26.4 -13.7,-41.7c1.2,-15.3 8.2,-29.2 19.8,-39.2c11.6,-10 26.4,-14.8 41.7,-13.7c15.3,1.2 29.2,8.2 39.2,19.8c10,11.6 14.8,26.4 13.7,41.7c-2.3,30.1 -27.5,53.1 -57.2,53.1zm-0.1,-94.5c-8.9,0 -17.3,3.1 -24.1,9c-7.5,6.4 -12.1,15.5 -12.8,25.4c-0.8,9.9 2.4,19.5 8.8,27c6.5,7.5 15.4,12.1 25.3,12.8c20.4,1.8 38.3,-13.8 39.8,-34.2c0.8,-9.9 -2.4,-19.5 -8.8,-27c-6.5,-7.5 -15.5,-12.1 -25.4,-12.8c-0.9,-0.1 -1.8,-0.2 -2.8,-0.2z" fill="#666666" id="svg_8"/>
 <path d="m114.5,531.1c57.8,-184.5 251.7,-245.8 259.9,-248.3l11.1,36.1c-1.8,0.6 -183.3,58.3 -235,223.5l-36,-11.3z" fill="#f6f6f6" id="svg_9"/>
 <path d="m150.5,552.6c-1,0 -2,-0.2 -3,-0.5l-36,-11.3c-5.3,-1.7 -8.3,-7.3 -6.6,-12.7c59.5,-190.1 258.1,-252.4 266.5,-254.9c5.3,-1.6 10.9,1.4 12.6,6.7l11.1,36.1c1.6,5.3 -1.4,11 -6.7,12.6c-1.8,0.6 -178.4,57.5 -228.4,216.9c-0.8,2.6 -2.6,4.7 -5,5.9c-1.3,0.8 -2.9,1.2 -4.5,1.2zm-23.2,-28l16.8,5.3c49.5,-141 190.9,-202.8 229,-217.1l-5.2,-16.9c-39.7,14 -187.7,76.4 -240.6,228.7z" fill="#666666" id="svg_10"/>
 <path d="m159.4,593.2c-13.3,22.4 -42.3,29.8 -64.7,16.6c-22.4,-13.3 -29.8,-42.3 -16.5,-64.7c13.3,-22.4 42.3,-29.8 64.7,-16.5c22.4,13.1 29.8,42.1 16.5,64.6z" fill="#ffc200" id="svg_11"/>
 <path d="m118.6,626.4c-9.9,0 -20,-2.6 -29.1,-8c-27.2,-16.2 -36.2,-51.4 -20.1,-78.6c16.1,-27.2 51.3,-36.2 78.6,-20.1c27.2,16.1 36.2,51.4 20.1,78.6c-10.7,18 -29.8,28.1 -49.5,28.1zm0.3,-94.4c-12.7,0 -25.1,6.5 -32,18.2c-10.4,17.6 -4.6,40.4 13,50.9c17.7,10.4 40.5,4.6 50.9,-13c10.4,-17.6 4.6,-40.4 -13,-50.9c-6,-3.6 -12.5,-5.2 -18.9,-5.2zm40.5,61.2l0.3,0l-0.3,0z" fill="#666666" id="svg_12"/>
 <path d="m804,160.3c104.5,-40 -64.5,136.1 -64.5,136.1c-222,150.3 -377.4,-13.4 -377.4,-13.4l-89.6,-117.8s308.6,80.5 531.5,-4.9z" fill="#c8c8c8" id="svg_13"/>
 <path d="m552.9,369.2c-120.9,0 -197,-78.1 -198.1,-79.2l-90.3,-118.6c-2.6,-3.4 -2.8,-8.1 -0.4,-11.7c2.4,-3.6 6.8,-5.3 11,-4.2c3.1,0.8 308,78.7 525.3,-4.5c16.2,-6.2 36.1,-11.7 44.8,1.4c15.7,23.7 -44.8,95.2 -98.4,151.1c-72.2,48.9 -137.9,65.7 -193.9,65.7zm-255.3,-187.8l72.6,95.4c5.4,5.6 151.8,154.7 363.7,11.2c50.1,-52.5 92.4,-108 94.1,-123.5l-0.1,0c-2.6,0 -8.5,0.8 -20.3,5.3c-187,71.6 -428.8,29.3 -510,11.6zm506.4,-21.1l0.3,0l-0.3,0z" fill="#666666" id="svg_14"/>
 <path d="m269,138.7c11,-26 79.1,-46.2 125.6,-32.3c107.8,32.3 104.1,-1.4 125.1,-13.3c21,-12 71,-13.3 140.6,16.7c67.2,28.9 116.7,-7.8 130.3,-7.5c106.8,2.4 46,77.9 21.9,100.7c-72.1,68 -148.3,22.4 -148.3,22.4s-37.3,-31.7 -82.1,-3.6c-47.6,29.8 -89.6,65.2 -141.7,19.4c-42.9,-37.8 -64.9,-19.4 -98.7,-27.5c-17.4,-4.3 -97,-17.8 -72.7,-75z" fill="#F3F3F3" id="svg_15"/>
 <path d="m706.94736,650.26315l-79.94736,48.8421l-80,-48.8421l80,-137.26315l79.94736,137.26315zm-79.94736,64.52631l-80,-48.8421l80,116.52631l79.99999,-116.52631l-79.99999,48.8421z" fill="#ffc200" id="svg_16"/>
 <path d="m564.706144,649.717287l64.793867,36.757075l64.793867,-36.757075l-64.793867,-110.271186l-64.793867,110.271186zm108.750939,48.027073l-43.957072,24.936511l-43.957072,-24.936511l43.957072,74.809532l43.957072,-74.809532zm-43.957072,-216.656169l102.785333,174.911816l-102.785333,174.927981l-102.785333,-174.927981l102.785333,-174.928001l0,0.016185z" fill="#666666" id="svg_17"/>
 <path d="m491.2,273.3c-18.2,0 -37.3,-6.8 -57.6,-24.7c-26.2,-23.1 -42.7,-22.8 -61.9,-22.6c-10,0.2 -20.4,0.3 -32.4,-2.6l-3.8,-0.9c-18.3,-4.1 -61.2,-13.6 -76.1,-42.5c-6.9,-13.4 -6.8,-28.6 0.3,-45.3c13.7,-32.2 88.4,-52.8 137.8,-38c79.6,23.9 92.5,10.5 103.8,-1.2c3.8,-3.9 7.7,-8 13.3,-11.2c22.2,-12.7 74.7,-16.1 149.6,16.2c47.1,20.3 84.5,5.8 106.8,-2.8c8.8,-3.4 13.6,-5.1 19.8,-5.5c38,0.9 61.1,11.1 68.5,30.4c13.7,35.7 -34.4,82.5 -39.9,87.7c-76.9,72.4 -159.7,24.2 -160.5,23.7c-2.6,-2 -33.8,-27.4 -71.6,-3.7l-13.3,8.5c-26.5,17 -53.6,34.5 -82.8,34.5zm-113.5,-67.6c18.9,0 40.5,2.3 69.3,27.7c41.4,36.5 74.4,15.2 116.1,-11.7l13.5,-8.6c40.5,-25.4 79.2,-8.1 94,4.5c1.5,0.7 69.3,39.7 134.9,-22c17.1,-16.1 41.7,-48.2 34.9,-65.8c-4.1,-10.6 -21.8,-16.8 -50.1,-17.4c-1.6,0.1 -7.4,2.3 -12,4.1c-23.5,9.1 -67.4,26.1 -122.1,2.5c-72.8,-31.3 -116.9,-25.5 -131.6,-17.2c-3.1,1.8 -5.7,4.5 -8.8,7.7c-17.9,18.6 -39.6,31.8 -124.2,6.5c-44.1,-13.2 -105.4,7.8 -113.4,26.5c-4.7,11.1 -5,20.3 -0.9,28.2c10.5,20.5 48.3,28.9 62.5,32l4.1,0.9c9.6,2.3 18.3,2.3 27.4,2.1c2.2,0.1 4.3,0 6.4,0z" fill="#666666" id="svg_18"/>
</svg>